<svg xmlns="http://www.w3.org/2000/svg" width="202" height="63" fill="none"><path fill="#673AB7" d="m59.058 7.06 3.07 43.9c.203 2.9-1.661 7.61-7.04 8.098l-43.9 3.07c-4.68.268-7.792-3.205-8.098-7.04l-3.07-43.9c-.358-5.534 4.158-7.855 7.04-8.099L50.96.02c4.386-.306 7.817 3.027 8.098 7.04Z"/><path fill="#fff" fill-rule="evenodd" d="m59.058 7.06 3.07 43.9c.203 2.9-1.661 7.61-7.04 8.098l-43.9 3.07c-4.68.268-7.792-3.205-8.098-7.04l-3.07-43.9c-.358-5.534 4.158-7.855 7.04-8.099L50.96.02c4.386-.306 7.817 3.027 8.098 7.04ZM11.053 59.455l-.535 1.993c.206.004.413 0 .622-.015l7.876-.551-7.11-1.905a.701.701 0 0 0-.853.478ZM44.769 1.15 49.21.84l-1.353 5.05a1.44 1.44 0 0 0 1.018 1.766l9.71 2.602.201 2.88-10.618-2.844a1.44 1.44 0 0 0-1.764 1.02l-.727 2.71a1.44 1.44 0 0 0 1.018 1.766l12.51 3.352.202 2.881-13.418-3.595a1.44 1.44 0 0 0-1.765 1.02l-.726 2.71a1.44 1.44 0 0 0 1.018 1.766l15.311 4.102.202 2.881-16.22-4.346a1.44 1.44 0 0 0-1.764 1.02l-3.633 13.556a1.44 1.44 0 0 0 1.019 1.766l16.246 4.353a1.44 1.44 0 0 0 1.764-1.02l2.902-10.83.579 8.373-2.664 9.94a1.44 1.44 0 0 0 1.018 1.766l.75.2a6.875 6.875 0 0 1-4.986 2.679l-.952.066a1.44 1.44 0 0 0 .205-.445l1.695-6.326a1.44 1.44 0 0 0-1.018-1.765L38.724 45.54a1.44 1.44 0 0 0-1.764 1.02l-1.696 6.326a1.44 1.44 0 0 0 1.018 1.765l14.87 3.984-8.368.586-7.208-1.932a1.44 1.44 0 0 0-1.764 1.02l-.42 1.569-12.11.846-9.184-2.46a1.44 1.44 0 0 0-1.765 1.019l-.565 2.11a6.904 6.904 0 0 1-5.206-3.617l1.737.465a1.44 1.44 0 0 0 1.765-1.02l3.632-13.556a1.44 1.44 0 0 0-1.018-1.765l-7.962-2.133-.202-2.882 8.87 2.377a1.44 1.44 0 0 0 1.765-1.02l.726-2.71a1.44 1.44 0 0 0-1.018-1.766L2.094 30.882l-.201-2.88 11.671 3.126a1.44 1.44 0 0 0 1.764-1.02l2.664-9.94a1.44 1.44 0 0 0-1.018-1.766L.921 14.101l-.207-2.962a6.465 6.465 0 0 1-.01-.194c.183.22.433.387.73.466l16.247 4.354a1.44 1.44 0 0 0 1.764-1.02l3.229-12.05 2.876-.201-.445 1.66a1.44 1.44 0 0 0 1.018 1.765l16.247 4.353a1.44 1.44 0 0 0 1.764-1.02l1.695-6.326a1.44 1.44 0 0 0-1.018-1.765l-.041-.011ZM17.184 39.284l16.246 4.353a1.44 1.44 0 0 1 1.018 1.766l-3.632 13.556a1.44 1.44 0 0 1-1.764 1.02l-16.246-4.354a1.44 1.44 0 0 1-1.019-1.765l3.633-13.556a1.44 1.44 0 0 1 1.764-1.02Zm16.988 20.539.36-1.34a.701.701 0 0 1 .853-.48l5.133 1.376-6.346.444ZM16.138 40.477l-3.637 13.575a.701.701 0 0 0 .477.854l16.264 4.358a.701.701 0 0 0 .854-.479l3.637-13.574a.701.701 0 0 0-.495-.86L16.992 40a.701.701 0 0 0-.854.478Zm19.84 12.6 1.7-6.343a.701.701 0 0 1 .854-.48l16.247 4.354c.373.1.595.485.495.86l-1.695 6.326-.005.017a.701.701 0 0 1-.854.48l-16.264-4.36a.701.701 0 0 1-.477-.853ZM2.77 40.548 3.784 55.04c.045.654.181 1.28.394 1.868l2.313.62a.701.701 0 0 0 .853-.48l3.638-13.573a.701.701 0 0 0-.496-.86L2.77 40.548Zm56.202 13.364 2.114-7.886.348 4.983a6.86 6.86 0 0 1-.967 4.03l-1.017-.273a.701.701 0 0 1-.478-.854ZM42.764 27.755l-3.637 13.574a.701.701 0 0 0 .477.854l16.264 4.358a.701.701 0 0 0 .854-.478l3.463-12.922-.099-1.408c-.065-.046-16.468-4.457-16.468-4.457a.701.701 0 0 0-.854.479Zm-3.28-6.711L23.236 16.69a1.44 1.44 0 0 0-1.764 1.02L16.872 34.88a1.44 1.44 0 0 0 1.018 1.765L34.136 41a1.44 1.44 0 0 0 1.764-1.02l4.602-17.171a1.44 1.44 0 0 0-1.019-1.765Zm-17.292-3.16-4.606 17.189a.701.701 0 0 0 .478.854l16.264 4.358a.701.701 0 0 0 .853-.479l4.606-17.189a.701.701 0 0 0-.495-.859l-16.246-4.353a.701.701 0 0 0-.854.479ZM2.46 36.105l-.31-4.442 10.516 2.818c.374.1.595.485.495.859l-.731 2.729a.701.701 0 0 1-.854.479L2.46 36.105ZM.976 14.881l.862 12.34 11.918 3.193a.701.701 0 0 0 .853-.479l2.669-9.959a.701.701 0 0 0-.495-.86L.976 14.882Zm43.236 7.469.732-2.73a.701.701 0 0 1 .853-.478l13.665 3.662.31 4.442-15.082-4.042a.701.701 0 0 1-.478-.854ZM25.416 8.556l16.247 4.354a1.44 1.44 0 0 1 1.018 1.765l-.726 2.711a1.44 1.44 0 0 1-1.765 1.02l-16.246-4.354a1.44 1.44 0 0 1-1.018-1.765l.726-2.711a1.44 1.44 0 0 1 1.764-1.02Zm21.702 2.949.005-.018a.701.701 0 0 1 .854-.479L58.84 13.92l.31 4.442-12.282-3.29a.701.701 0 0 1-.477-.855l.726-2.711ZM24.371 9.75l-.731 2.729a.701.701 0 0 0 .478.854l16.264 4.358a.701.701 0 0 0 .853-.479l.732-2.729a.701.701 0 0 0-.496-.859L25.225 9.271a.701.701 0 0 0-.854.479ZM7.108 3.783 21.894 2.75l-3.168 11.822a.701.701 0 0 1-.854.479L1.626 10.697l-.018-.005a.701.701 0 0 1-.477-.854l.855-3.193a6.878 6.878 0 0 1 5.122-2.862Zm35.395-2.475L26.33 2.44l-.51 1.906a.701.701 0 0 0 .477.854l16.264 4.358a.701.701 0 0 0 .854-.478l1.7-6.344a.701.701 0 0 0-.495-.86l-2.117-.567ZM49.99.785l1.018-.072a6.892 6.892 0 0 1 7.356 6.395l.166 2.37-9.464-2.537-.017-.005a.701.701 0 0 1-.478-.854l1.42-5.297Z" clip-rule="evenodd" opacity=".3"/><path fill="#fff" d="M26.644 28.503h1.383c.556 0 1.017-.076 1.383-.23.366-.154.68-.4.944-.737l8.76-11.108c.365-.469.75-.795 1.152-.978.402-.184.91-.275 1.525-.275h5.093l-10.69 13.218c-.63.807-1.281 1.379-1.954 1.716.483.176.918.422 1.306.737s.757.73 1.108 1.243l11.02 14.89h-5.202c-.703 0-1.226-.1-1.57-.297a2.46 2.46 0 0 1-.867-.869l-8.978-11.745c-.278-.396-.6-.674-.966-.836-.366-.161-.893-.242-1.58-.242h-1.867v10.674a3.315 3.315 0 0 1-3.315 3.315h-2.59V15.175h2.59a3.315 3.315 0 0 1 3.315 3.315v10.014Z"/><path fill="#262D38" fill-rule="evenodd" d="M128.646 34.06a7.273 7.273 0 0 1 1.966-1.478c.721-.367 1.543-.55 2.468-.55.849 0 1.614.166 2.296.5a4.9 4.9 0 0 1 1.745 1.435c.482.624.851 1.378 1.109 2.264.257.886.386 1.88.386 2.985 0 1.19-.148 2.271-.443 3.242-.296.972-.718 1.802-1.266 2.493a5.76 5.76 0 0 1-1.982 1.606c-.772.381-1.63.572-2.574.572-.458 0-.873-.045-1.245-.136a4.64 4.64 0 0 1-1.03-.378 4.137 4.137 0 0 1-.865-.593 7.19 7.19 0 0 1-.751-.779l-.158.986c-.057.248-.155.424-.293.529-.138.104-.327.157-.565.157h-2.332V25.69h3.534v8.37Zm-47.106.857h.901c.363 0 .663-.05.902-.15.238-.1.443-.26.615-.479l5.707-7.212c.239-.305.49-.517.751-.636.263-.119.594-.178.995-.178h3.318l-6.966 8.584c-.41.523-.835.895-1.273 1.114.314.114.598.273.85.478.254.205.494.474.723.807l7.181 9.67h-3.39c-.458 0-.799-.065-1.023-.193a1.601 1.601 0 0 1-.565-.564l-5.85-7.627a1.532 1.532 0 0 0-.63-.543c-.238-.105-.582-.157-1.03-.157H81.54v9.084h-3.848V26.262h3.848v8.655Zm22.959 5.742c-1.02.047-1.878.135-2.575.264-.696.128-1.254.293-1.673.493-.42.2-.72.433-.901.7a1.518 1.518 0 0 0-.272.87c0 .62.183 1.063.55 1.33.368.266.847.399 1.438.399.725 0 1.352-.13 1.881-.393.529-.262 1.047-.66 1.552-1.192v-2.471Zm-2.002-8.67c-2.375 0-4.406.771-6.094 2.314l.63 1.128c.104.172.242.322.414.45.172.129.382.193.63.193.286 0 .545-.067.78-.2l.425-.245.354-.205c.286-.167.617-.317.994-.45s.851-.2 1.423-.2c.792 0 1.397.236 1.817.707.419.471.629 1.197.629 2.178v.857a22.833 22.833 0 0 0-2.975.25c-.868.138-1.628.317-2.282.536-.653.219-1.204.476-1.652.771-.448.295-.813.61-1.094.943a3.234 3.234 0 0 0-.608 1.05 3.435 3.435 0 0 0-.186 1.106c0 .658.105 1.234.315 1.729.21.495.505.909.886 1.242.382.334.835.584 1.36.75.524.167 1.096.25 1.716.25.525 0 1.004-.045 1.438-.136.434-.09.841-.221 1.223-.392a6.417 6.417 0 0 0 1.101-.636c.353-.252.715-.545 1.087-.878l.315 1.057c.105.304.248.507.429.607.181.1.439.15.773.15h1.602v-9.256c0-.828-.122-1.59-.365-2.285a4.999 4.999 0 0 0-1.066-1.793 4.862 4.862 0 0 0-1.716-1.17c-.677-.282-1.445-.422-2.303-.422Zm10.928 2.07c.296-.294.608-.568.937-.82a5.85 5.85 0 0 1 2.225-1.057c.419-.1.877-.15 1.373-.15.801 0 1.512.136 2.131.407.62.271 1.138.652 1.552 1.142.415.49.73 1.076.945 1.757.214.681.321 1.43.321 2.25v9.327h-3.533v-9.327c0-.895-.205-1.588-.615-2.078-.41-.49-1.035-.736-1.874-.736-.61 0-1.182.138-1.716.414a6.157 6.157 0 0 0-1.517 1.129v10.598h-3.533V32.26h2.16c.458 0 .758.215.901.643l.243 1.157Zm16.529 10.085c-.472-.2-.908-.543-1.308-1.029v-6.57c.457-.562.939-.997 1.444-1.307.506-.31 1.097-.464 1.774-.464 1.001 0 1.769.36 2.303 1.078.534.72.801 1.883.801 3.493 0 .895-.081 1.664-.243 2.306-.162.643-.396 1.171-.701 1.586a2.792 2.792 0 0 1-1.108.914 3.539 3.539 0 0 1-1.467.293c-.524 0-1.022-.1-1.495-.3Zm16-3.221c.696-.129 1.555-.217 2.575-.264v2.47c-.505.534-1.023.931-1.552 1.193-.529.262-1.156.393-1.881.393-.591 0-1.07-.133-1.438-.4-.367-.267-.55-.71-.55-1.328 0-.315.09-.605.271-.872.182-.266.482-.5.902-.7.419-.2.977-.364 1.673-.492Zm-5.521-6.62c1.688-1.543 3.719-2.314 6.093-2.314.859 0 1.626.14 2.303.421.678.281 1.25.672 1.717 1.172.467.5.823 1.097 1.066 1.792.243.695.365 1.457.365 2.285v9.256h-1.603c-.333 0-.591-.05-.772-.15-.181-.1-.324-.303-.429-.607l-.315-1.057c-.372.333-.734.626-1.087.878s-.72.464-1.102.636a5.916 5.916 0 0 1-1.223.392c-.433.09-.913.136-1.437.136-.62 0-1.192-.083-1.717-.25a3.783 3.783 0 0 1-1.359-.75 3.375 3.375 0 0 1-.887-1.242c-.209-.495-.314-1.072-.314-1.729 0-.37.062-.74.186-1.106.124-.367.326-.717.608-1.05a5.057 5.057 0 0 1 1.094-.943c.448-.295.999-.552 1.652-.771a14.28 14.28 0 0 1 2.282-.536 22.818 22.818 0 0 1 2.975-.25v-.857c0-.98-.21-1.707-.629-2.178-.42-.471-1.025-.707-1.817-.707-.572 0-1.047.067-1.423.2a5.84 5.84 0 0 0-.994.45l-.354.205-.426.245c-.234.133-.494.2-.78.2a1.02 1.02 0 0 1-.629-.193 1.608 1.608 0 0 1-.415-.45l-.629-1.128Zm17.959-1.064a9.603 9.603 0 0 0-.937.82l-.243-1.156c-.143-.428-.443-.643-.901-.643h-2.16v14.655h3.533V36.317a6.153 6.153 0 0 1 1.516-1.129 3.687 3.687 0 0 1 1.717-.414c.839 0 1.464.245 1.874.736.41.49.615 1.183.615 2.078v9.327h3.533v-9.327c0-.82-.107-1.569-.322-2.25a5.007 5.007 0 0 0-.944-1.757 4.211 4.211 0 0 0-1.552-1.142c-.62-.272-1.33-.407-2.131-.407-.496 0-.954.05-1.373.15-.42.1-.813.238-1.181.414-.367.176-.715.39-1.044.643Zm21.836 2.12a1.767 1.767 0 0 1-.307.315c-.1.076-.246.114-.437.114a.973.973 0 0 1-.529-.164l-.07-.045a18.217 18.217 0 0 0-.545-.326 4.586 4.586 0 0 0-.851-.372c-.329-.11-.737-.164-1.223-.164-.62 0-1.164.112-1.631.336a3.093 3.093 0 0 0-1.166.964c-.31.419-.541.926-.693 1.52-.153.596-.229 1.27-.229 2.022 0 .78.083 1.476.25 2.085.167.61.408 1.121.722 1.536.315.414.697.728 1.145.942.448.215.953.322 1.516.322.563 0 1.018-.07 1.366-.208a4.31 4.31 0 0 0 .88-.456l.094-.066c.199-.142.375-.272.528-.392a.94.94 0 0 1 .594-.207c.286 0 .5.11.644.329l1.015 1.285c-.391.457-.815.84-1.273 1.15-.458.31-.932.557-1.423.743a7.247 7.247 0 0 1-1.517.392c-.519.077-1.037.115-1.552.115a6.515 6.515 0 0 1-2.56-.507 6.052 6.052 0 0 1-2.103-1.478c-.601-.648-1.075-1.44-1.423-2.379-.348-.938-.522-2.006-.522-3.206 0-1.076.155-2.073.465-2.992a6.759 6.759 0 0 1 1.366-2.386 6.253 6.253 0 0 1 2.231-1.578c.887-.38 1.907-.571 3.061-.571 1.097 0 2.058.176 2.883.528a7.042 7.042 0 0 1 2.224 1.514l-.93 1.286Zm8.125-2.827a7.68 7.68 0 0 0-1.888 1.3V25.69h-3.533v21.225h3.533V36.317a6.156 6.156 0 0 1 1.516-1.129 3.687 3.687 0 0 1 1.717-.414c.839 0 1.464.245 1.874.736.41.49.615 1.183.615 2.078v9.327h3.533v-9.327c0-.82-.107-1.569-.322-2.25a5.009 5.009 0 0 0-.944-1.757 4.21 4.21 0 0 0-1.552-1.142c-.62-.272-1.33-.407-2.131-.407-.925 0-1.731.166-2.418.5Zm13.161-.272v14.655h-3.548V32.26h3.548Zm.3-3.413c.124-.267.186-.553.186-.857 0-.314-.062-.61-.186-.886a2.303 2.303 0 0 0-.493-.714c-.205-.2-.446-.36-.723-.478a2.216 2.216 0 0 0-.887-.179c-.305 0-.593.06-.865.179a2.287 2.287 0 0 0-.708.478c-.201.2-.36.438-.479.714-.12.276-.179.572-.179.886 0 .304.059.59.179.857a2.287 2.287 0 0 0 1.187 1.178c.272.12.56.179.865.179.315 0 .611-.06.887-.179.277-.119.518-.278.723-.478.205-.2.369-.434.493-.7Z" clip-rule="evenodd"/></svg>