<svg width="57" height="57" viewBox="0 0 57 57" fill="none" xmlns="http://www.w3.org/2000/svg">
<path opacity="0.7" fill-rule="evenodd" clip-rule="evenodd" d="M28.5 56.5C43.964 56.5 56.5 43.964 56.5 28.5C56.5 13.036 43.964 0.5 28.5 0.5C13.036 0.5 0.5 13.036 0.5 28.5C0.5 43.964 13.036 56.5 28.5 56.5ZM24.1945 18.9982C23.8974 18.8072 23.5197 18.7937 23.2097 18.963C22.8997 19.1322 22.7069 19.4572 22.7069 19.8104V37.1897C22.7069 37.5429 22.8997 37.8679 23.2097 38.0372C23.5197 38.2064 23.8974 38.1929 24.1945 38.0019L37.7118 29.3122C37.9881 29.1346 38.1552 28.8286 38.1552 28.5001C38.1552 28.1715 37.9881 27.8655 37.7118 27.6879L24.1945 18.9982Z" fill="white"/>
</svg>
